<svg xmlns="http://www.w3.org/2000/svg" xmlns:xlink="http://www.w3.org/1999/xlink" version="1.1" width="256" height="256" viewBox="0 0 256 256" xml:space="preserve">
<desc>Created with Fabric.js 1.7.22</desc>
<defs>
</defs>
<g transform="translate(128 128) scale(0.72 0.72)" style="">
	<g style="stroke: none; stroke-width: 0; stroke-dasharray: none; stroke-linecap: butt; stroke-linejoin: miter; stroke-miterlimit: 10; fill: none; fill-rule: nonzero; opacity: 1;" transform="translate(-175.05 -175.05000000000004) scale(3.89 3.89)" >
	<path d="M 89.942 50.999 l -0.462 -2.743 c -0.767 -4.554 -4.165 -8.181 -8.66 -9.24 l -8.706 -2.052 L 62.09 31.245 c -4.881 -2.785 -10.433 -4.257 -16.054 -4.257 H 34.411 c -5.561 0 -11.061 1.443 -15.904 4.172 l -6.634 3.738 H 7.077 c -3.084 0 -5.691 2.309 -6.064 5.37 l -0.967 7.943 c -0.404 3.317 1.869 6.296 5.175 6.782 l 4.775 0.703 c 0.436 4.106 3.919 7.316 8.139 7.316 c 4.175 0 7.623 -3.144 8.119 -7.187 h 37.874 c 0.496 4.043 3.945 7.187 8.119 7.187 s 7.623 -3.144 8.119 -7.187 h 5.494 c 1.221 0 2.373 -0.534 3.161 -1.467 C 89.809 53.428 90.145 52.203 89.942 50.999 z M 18.134 61.013 c -3.411 0 -6.187 -2.775 -6.187 -6.187 s 2.775 -6.187 6.187 -6.187 s 6.187 2.775 6.187 6.187 S 21.545 61.013 18.134 61.013 z M 72.246 61.013 c -3.411 0 -6.187 -2.775 -6.187 -6.187 s 2.775 -6.187 6.187 -6.187 s 6.187 2.775 6.187 6.187 S 75.657 61.013 72.246 61.013 z M 87.493 53.068 c -0.407 0.481 -1.003 0.758 -1.634 0.758 h -5.494 c -0.496 -4.043 -3.945 -7.187 -8.119 -7.187 s -7.623 3.144 -8.119 7.187 H 26.253 c -0.496 -4.043 -3.944 -7.187 -8.119 -7.187 c -4.125 0 -7.537 3.069 -8.097 7.042 l -4.526 -0.666 c -2.224 -0.327 -3.753 -2.331 -3.481 -4.562 l 0.967 -7.943 c 0.251 -2.06 2.004 -3.612 4.079 -3.612 h 5.058 c 0.172 0 0.341 -0.044 0.491 -0.129 l 6.862 -3.867 c 4.545 -2.561 9.706 -3.915 14.923 -3.915 h 11.625 c 5.274 0 10.483 1.381 15.063 3.995 l 10.149 5.79 c 0.083 0.047 0.173 0.083 0.266 0.104 l 8.847 2.085 c 3.709 0.875 6.515 3.868 7.146 7.625 l 0.462 2.743 C 88.074 51.953 87.901 52.586 87.493 53.068 z" style="stroke: none; stroke-width: 1; stroke-dasharray: none; stroke-linecap: butt; stroke-linejoin: miter; stroke-miterlimit: 10; fill: rgb(0,0,0); fill-rule: nonzero; opacity: 1;" transform=" matrix(1 0 0 1 0 0) " stroke-linecap="round" />
	<path d="M 64.313 38.017 l -7.541 -3.935 c -3.658 -1.909 -7.816 -2.917 -12.024 -2.917 H 36.11 c -4.163 0 -8.282 0.989 -11.911 2.859 L 19.1 36.652 c -0.009 0.004 -0.017 0.009 -0.026 0.014 l -2.466 1.363 c -0.399 0.221 -0.598 0.683 -0.484 1.125 c 0.114 0.441 0.512 0.75 0.968 0.75 h 46.759 c 0.461 0 0.861 -0.314 0.972 -0.762 C 64.932 38.695 64.722 38.23 64.313 38.017 z M 25.115 35.801 c 3.348 -1.725 7.149 -2.637 10.995 -2.637 h 3.973 v 4.739 H 21.036 L 25.115 35.801 z M 42.083 37.904 v -4.739 h 2.665 c 3.887 0 7.726 0.931 11.099 2.691 l 3.926 2.048 H 42.083 z" style="stroke: none; stroke-width: 1; stroke-dasharray: none; stroke-linecap: butt; stroke-linejoin: miter; stroke-miterlimit: 10; fill: rgb(0,0,0); fill-rule: nonzero; opacity: 1;" transform=" matrix(1 0 0 1 0 0) " stroke-linecap="round" />
</g>
</g>
</svg>